<svg width="24" height="24" viewBox="0 0 24 24" fill="none" xmlns="http://www.w3.org/2000/svg">
<rect width="24" height="24" rx="4" fill="#FFEDED"/>
<path fill-rule="evenodd" clip-rule="evenodd" d="M17.8403 6.93115C18.0532 6.71814 18.0532 6.37278 17.8403 6.15977C17.6272 5.94674 17.2819 5.94674 17.0688 6.15977L12 11.2286L6.93115 6.15977C6.71814 5.94674 6.37278 5.94674 6.15977 6.15977C5.94674 6.37278 5.94674 6.71814 6.15977 6.93115L11.2286 12L6.15977 17.0688C5.94674 17.2819 5.94674 17.6272 6.15977 17.8403C6.37278 18.0532 6.71814 18.0532 6.93115 17.8403L12 12.7714L17.0688 17.8403C17.2819 18.0532 17.6272 18.0532 17.8403 17.8403C18.0532 17.6272 18.0532 17.2819 17.8403 17.0688L12.7714 12L17.8403 6.93115Z" fill="#EB1C1C"/>
</svg>
