<svg width="81" height="28" viewBox="0 0 81 28" fill="none" xmlns="http://www.w3.org/2000/svg">
<rect width="81" height="28" rx="4" fill="#E4FFE1"/>
<path d="M18.6668 20V18.6667C18.6668 17.9594 18.3859 17.2811 17.8858 16.781C17.3857 16.281 16.7074 16 16.0002 16H12.0002C11.2929 16 10.6146 16.281 10.1145 16.781C9.61445 17.2811 9.3335 17.9594 9.3335 18.6667V20" stroke="#0E9935" stroke-width="1.25" stroke-linecap="round" stroke-linejoin="round"/>
<path d="M14.0002 13.3333C15.4729 13.3333 16.6668 12.1394 16.6668 10.6667C16.6668 9.19391 15.4729 8 14.0002 8C12.5274 8 11.3335 9.19391 11.3335 10.6667C11.3335 12.1394 12.5274 13.3333 14.0002 13.3333Z" stroke="#0E9935" stroke-width="1.25" stroke-linecap="round" stroke-linejoin="round"/>
<path d="M20.6665 11.3334V15.3334" stroke="#0E9935" stroke-width="1.25" stroke-linecap="round" stroke-linejoin="round"/>
<path d="M22.6665 13.3334H18.6665" stroke="#0E9935" stroke-width="1.25" stroke-linecap="round" stroke-linejoin="round"/>
<path d="M34.544 15.312V13.836H36.248C36.592 13.836 36.88 13.768 37.112 13.632C37.352 13.496 37.532 13.308 37.652 13.068C37.78 12.828 37.844 12.552 37.844 12.24C37.844 11.928 37.78 11.652 37.652 11.412C37.532 11.172 37.352 10.988 37.112 10.86C36.88 10.724 36.592 10.656 36.248 10.656H34.544V9.18H36.104C36.84 9.18 37.464 9.3 37.976 9.54C38.496 9.78 38.892 10.124 39.164 10.572C39.436 11.012 39.572 11.536 39.572 12.144V12.336C39.572 12.944 39.436 13.472 39.164 13.92C38.892 14.36 38.496 14.704 37.976 14.952C37.464 15.192 36.84 15.312 36.104 15.312H34.544ZM33.08 18V9.18H34.784V18H33.08ZM43.8847 18.228C43.3087 18.228 42.8007 18.136 42.3607 17.952C41.9207 17.768 41.5487 17.52 41.2447 17.208C40.9407 16.888 40.7087 16.528 40.5487 16.128C40.3967 15.728 40.3207 15.312 40.3207 14.88V14.628C40.3207 14.18 40.4007 13.756 40.5607 13.356C40.7287 12.948 40.9647 12.588 41.2687 12.276C41.5807 11.956 41.9567 11.708 42.3967 11.532C42.8367 11.348 43.3327 11.256 43.8847 11.256C44.4367 11.256 44.9327 11.348 45.3727 11.532C45.8127 11.708 46.1847 11.956 46.4887 12.276C46.8007 12.588 47.0367 12.948 47.1967 13.356C47.3567 13.756 47.4367 14.18 47.4367 14.628V14.88C47.4367 15.312 47.3567 15.728 47.1967 16.128C47.0447 16.528 46.8167 16.888 46.5127 17.208C46.2087 17.52 45.8367 17.768 45.3967 17.952C44.9567 18.136 44.4527 18.228 43.8847 18.228ZM43.8847 16.8C44.2927 16.8 44.6367 16.712 44.9167 16.536C45.1967 16.352 45.4087 16.108 45.5527 15.804C45.6967 15.492 45.7687 15.14 45.7687 14.748C45.7687 14.348 45.6927 13.996 45.5407 13.692C45.3967 13.38 45.1807 13.136 44.8927 12.96C44.6127 12.776 44.2767 12.684 43.8847 12.684C43.4927 12.684 43.1527 12.776 42.8647 12.96C42.5847 13.136 42.3687 13.38 42.2167 13.692C42.0647 13.996 41.9887 14.348 41.9887 14.748C41.9887 15.14 42.0607 15.492 42.2047 15.804C42.3567 16.108 42.5727 16.352 42.8527 16.536C43.1327 16.712 43.4767 16.8 43.8847 16.8ZM48.4069 18V16.68L51.6229 12.816V13.008L51.3709 12.672L51.5749 12.768H48.3949V11.484H53.3629V12.804L50.1469 16.668V16.488L50.4109 16.824L50.2069 16.716H53.4949V18H48.4069ZM56.0998 18L54.0598 11.484H55.7758L57.7318 18H56.0998ZM56.5918 18V16.632H58.3558V18H56.5918ZM57.2518 18L58.9318 11.484H60.5398L58.7758 18H57.2518ZM65.6655 18V16.068H65.3895V13.92C65.3895 13.544 65.2975 13.264 65.1135 13.08C64.9295 12.896 64.6455 12.804 64.2615 12.804C64.0615 12.804 63.8215 12.808 63.5415 12.816C63.2615 12.824 62.9775 12.836 62.6895 12.852C62.4095 12.86 62.1575 12.872 61.9335 12.888V11.472C62.1175 11.456 62.3255 11.44 62.5575 11.424C62.7895 11.408 63.0255 11.4 63.2655 11.4C63.5135 11.392 63.7455 11.388 63.9615 11.388C64.6335 11.388 65.1895 11.476 65.6295 11.652C66.0775 11.828 66.4135 12.104 66.6375 12.48C66.8695 12.856 66.9855 13.348 66.9855 13.956V18H65.6655ZM63.5655 18.168C63.0935 18.168 62.6775 18.084 62.3175 17.916C61.9655 17.748 61.6895 17.508 61.4895 17.196C61.2975 16.884 61.2015 16.508 61.2015 16.068C61.2015 15.588 61.3175 15.196 61.5495 14.892C61.7895 14.588 62.1215 14.36 62.5455 14.208C62.9775 14.056 63.4815 13.98 64.0575 13.98H65.5695V14.976H64.0335C63.6495 14.976 63.3535 15.072 63.1455 15.264C62.9455 15.448 62.8455 15.688 62.8455 15.984C62.8455 16.28 62.9455 16.52 63.1455 16.704C63.3535 16.888 63.6495 16.98 64.0335 16.98C64.2655 16.98 64.4775 16.94 64.6695 16.86C64.8695 16.772 65.0335 16.628 65.1615 16.428C65.2975 16.22 65.3735 15.94 65.3895 15.588L65.7975 16.056C65.7575 16.512 65.6455 16.896 65.4615 17.208C65.2855 17.52 65.0375 17.76 64.7175 17.928C64.4055 18.088 64.0215 18.168 63.5655 18.168ZM71.6042 18.084C71.0042 18.084 70.5082 18.008 70.1162 17.856C69.7322 17.696 69.4442 17.432 69.2522 17.064C69.0602 16.688 68.9642 16.184 68.9642 15.552L68.9762 9.648H70.5362L70.5242 15.66C70.5242 15.98 70.6082 16.228 70.7762 16.404C70.9522 16.572 71.2002 16.656 71.5202 16.656H72.5402V18.084H71.6042ZM67.9322 12.708V11.484H72.5402V12.708H67.9322Z" fill="#0E9935"/>
</svg>
